# xmcd CD database file
#
# Track frame offsets:
#	150
#	7505
#	9707
#	13682
#	16025
#	18070
#	21717
#	26805
#	30647
#	33980
#	36067
#	38192
#	40765
#	42227
#	44197
#	46302
#	50690
#	53672
#	55075
#	57337
#	58682
#	61880
#	98495
#	115437
#	140610
#	143865
#	146302
#	148310
#	149752
#	180130
#
# Disc length: 2762 seconds
#
# Revision: 1
# Processed by: cddbd v1.5.2PL0 Copyright (c) Steve Scherf et al.
# Submitted via: CDex 1.51
#
DISCID=9f0ac81e
DTITLE=Gary Turner and Brenton White - Fingerpicking Guitar
DYEAR=2003
DGENRE=Country
TTITLE0=Tuning
TTITLE1=Lesson1 Ex 1
TTITLE2=Lesson 2 Ex 2-3
TTITLE3=Lesson 3 Ex 4-5
TTITLE4=Lesson 4 Ex 6
TTITLE5=Lesson 5 Ex 7-8
TTITLE6=Lesson 6 Ex 9 -  Pattern Seven A
TTITLE7=Lesson 7 Ex 11-12
TTITLE8=Lesson 8 Ex 13-14
TTITLE9=Lesson 9 Ex 15
TTITLE10=Lesson 10 Ex 16-17
TTITLE11=Lesson 11 Ex 18
TTITLE12=Lesson 12 Ex 19
TTITLE13=Lesson 13 Ex 20
TTITLE14=Lesson 14 Ex 21
TTITLE15=Lesson 15 Ex 22-23
TTITLE16=Lesson 16 Ex 24-25
TTITLE17=Lesson 17 Ex 26
TTITLE18=Lesson 18 Ex 27
TTITLE19=Lesson 19 Ex 28
TTITLE20=Lesson 20 Ex 29-30
TTITLE21=Songs - Aura Lee Scarborough Fair
TTITLE22=Progression 1-10
TTITLE23=Greensleeves
TTITLE24=Amazing Grace (Arpeggio)
TTITLE25=Turnaround
TTITLE26=12 Bar Blues
TTITLE27=Melody with Clawhanmmer Accompaniment
TTITLE28=Supplementary Pieces - Group 1
TTITLE29=Supplementary Pieces - Group 2
EXTD=YEAR: 2003
EXTT0=
EXTT1=
EXTT2=
EXTT3=
EXTT4=
EXTT5=
EXTT6=
EXTT7=
EXTT8=
EXTT9=
EXTT10=
EXTT11=
EXTT12=
EXTT13=
EXTT14=
EXTT15=
EXTT16=
EXTT17=
EXTT18=
EXTT19=
EXTT20=
EXTT21=
EXTT22=
EXTT23=
EXTT24=
EXTT25=
EXTT26=
EXTT27=
EXTT28=
EXTT29=
PLAYORDER=
